Patient4_TMGait_0pt3_01_right_05_EMG.mot
version=1
nRows=13
nColumns=33
inDegrees=no
endheader
time	1LAddLong	2LGlutMax	3LGlutMed	4LIliopsoas	5LSemiMemb	6LBicFemLong	7LRecFem	8LVastMed	9LVastLat	10LGasMed	11LTibAnt	12lTibPost	13LPeroneusLong	14LSol	15LExtDigLong	16LFlexDigLong	17RAddLong	18RGlutMax	19RGlutMed	20RIliopsoas	21RSemiMemb	22RBicFemLong	23RRecFem	24RVastMed	25RVastLat	26RGasMed	27RTibAnt	28RTibPost	29RPeroneusLong	30RSol	31RExtDigLong	32RFlexDigLong
9.798	0.011444	-0.003357	0.11734	0.001221	-0.011444	0.062408	0.049133	0.01709	0.031738	0.00473	0.014038	-0.000458	-0.49866	0.2475	0.055542	-0.005035	-0.01709	-0.006561	-0.030975	0.13458	0.038452	0.012512	0.023651	-0.024872	-0.014954	-0.001678	0.14801	0.007019	-0.010834	-0.10757	0.010529	-0.016327
9.799	0.019226	-0.054016	-0.13351	0.023651	0.000458	-0.086212	0.001831	0.007629	0.112	0.037689	0.017395	0.001678	-0.37384	0.15656	0.016479	0.005188	-0.020294	0.006714	-0.023346	0.21194	0.040894	0.014954	0.003357	-0.003815	-0.022583	-0.006866	-0.36972	0.001526	0.00824	-0.1384	0.002747	-0.011444
9.8	0.00412	-0.11826	-0.18372	0.025177	-0.002441	-0.21652	0.032501	-0.020447	0.1796	0.0383	0.016937	-0.003357	0.19608	0.080872	-0.11826	-0.002441	-0.017853	0.014038	0.040588	0.11932	0.03006	0.016327	-0.011902	0.023651	-0.017548	-0.010986	-0.34637	-0.002441	-0.004425	-0.10239	0.001831	-0.023041
9.801	0.007172	-0.090027	-0.00946	0.01236	-0.010986	-0.048218	-0.053864	-0.020294	0.22125	-0.011139	-0.006256	0.005493	-0.20371	-0.018005	-0.016174	0.00061	-0.024414	0.043182	0.00412	0.15793	0.031586	0.007172	0.13016	0.058289	-0.015259	-0.008545	-0.3804	-0.004425	0.002441	-0.047607	0.001984	-0.011597
9.802	0.009155	-0.048065	-0.13351	0.012512	-0.011292	-0.16251	-0.092621	-0.03479	0.19501	0.031891	-0.017548	0.010681	-0.23743	-0.13809	0.032349	0.008545	-0.018005	0.082092	-0.067596	0.19379	0.028076	-0.002441	0.11139	0.043182	-0.017853	0.001373	-0.36087	-0.003815	0.034332	-0.032349	0.008545	-0.018768
9.803	0.013123	-0.071716	0.11353	-0.011139	0.003662	-0.38345	-0.054169	-0.023193	0.025024	0.075378	-0.049133	0.01297	0.091248	-0.25146	-0.028687	0.006714	-0.01358	0.042114	0.096283	0.09964	0.027313	0.00946	0.103	-0.023041	-0.022583	0.000305	-0.17029	-0.008087	0.018005	-0.056458	0.003967	0.005188
9.804	0.019531	-0.050049	0.17654	-0.005035	-0.003662	-0.16754	-0.06546	-0.026093	-0.000916	0.11643	-0.050507	0.023651	0.29572	-0.23712	-0.058594	0.00061	-0.007477	0.067749	0.15259	0.09552	0.024414	0.019073	0.042877	0.014496	-0.018616	0.000305	0.1767	-0.005951	-0.036163	-0.049744	0.003967	-0.006256
9.805	0.016327	-0.002594	-0.04837	0.000458	-0.00885	-0.12405	-0.059967	-0.009766	0.028229	0.1004	-0.020142	0.045471	0.019989	-0.28	-0.015259	0.007019	-0.001678	0.067139	0.12085	0.025177	0.02182	0.014648	0.046234	-0.061951	0.012512	-0.008087	0.39703	-0.004272	-0.1564	-0.060883	0.010834	-0.002136
9.806	0.006866	-0.00412	-0.10361	-0.002899	-0.029297	-0.17731	0.056915	0.010529	-0.018311	0.059204	-0.016022	-0.053864	-0.15686	-0.25269	0.009766	-0.005646	-0.00351	0.049286	-0.025177	-0.050507	0.023193	0.009766	0.16098	-0.059509	0.004578	-0.008087	0.43198	-0.005951	-0.11261	-0.052185	0.002136	-0.005035
9.807	0.007477	0.024261	0.004272	0.00473	-0.030212	-0.15213	0.050812	0	-0.08255	0.018158	0.005493	0.010223	-0.48691	-0.078125	0.039978	-0.002899	0.003815	0.045319	0.023346	-0.076904	0.02243	0.00473	0.19745	-0.055695	-0.004883	-0.011902	0.13947	-0.009155	-0.17288	-0.041962	0.001678	-0.005493
9.808	0.003967	0.051727	0.16235	0.018463	-0.03479	-0.13199	0.004425	0.013885	-0.059967	0.007782	0.01297	0.05249	-0.083618	-0.005341	0.041504	-0.003815	-0.000458	-0.009613	-0.039215	-0.028381	0.029907	0.010223	0.17761	-0.10376	-0.014648	-0.003357	-0.51743	-0.006104	-0.082855	-0.032349	0.002441	-0.011902
9.809	-0.009766	0.017548	0.028839	0.014191	-0.014648	-0.088196	0.003815	0.022583	0.023193	0.001373	-0.00061	0.024414	0.48202	0.09613	0.025177	-0.006866	0.005035	0.012512	0.007324	-0.009003	0.015106	0.001526	0.12207	-0.085297	0.002289	-0.009308	-0.47623	-0.00824	-0.044098	-0.028381	-0.000153	0.001373
9.81	-0.007019	0.033722	0.10101	-0.002899	-0.006714	-0.037079	-0.064697	0.026703	0.028992	0.018616	0.019531	-0.019531	0.78934	0.11978	-0.039368	-0.005798	-0.000305	0.021973	-0.08255	0.00351	0.029449	0.003204	0.028534	-0.079346	0.003967	-0.004272	-0.38208	-0.007629	0.1004	-0.087891	0.00351	-0.007019
